<svg xmlns="http://www.w3.org/2000/svg" version="1.1" xmlns:xlink="http://www.w3.org/1999/xlink" xmlns:svgjs="http://svgjs.dev/svgjs" width="1000" height="625" viewBox="0 0 1000 625"><g transform="matrix(1,0,0,1,0,0)"><svg viewBox="0 0 512 320" data-background-color="#ffffff" preserveAspectRatio="xMidYMid meet" height="625" width="1000" xmlns="http://www.w3.org/2000/svg" xmlns:xlink="http://www.w3.org/1999/xlink"><g id="tight-bounds" transform="matrix(1,0,0,1,0,0)"><svg viewBox="0 0 512 320" height="320" width="512"><g><svg></svg></g><g><svg viewBox="0 0 512 320" height="320" width="512"><g><path transform="translate(256,160) scale(160,160)" d="M-1 0c0-0.552 0.448-1 1-1 0.552 0 1 0.448 1 1 0 0.552-0.448 1-1 1-0.552 0-1-0.448-1-1z" fill="#915eff" fill-rule="nonzero" stroke="none" stroke-width="1" stroke-linecap="butt" stroke-linejoin="miter" stroke-miterlimit="10" stroke-dasharray="" stroke-dashoffset="0" font-family="none" font-weight="none" font-size="none" text-anchor="none" style="mix-blend-mode: normal" data-fill-palette-color="tertiary"></path></g><g transform="matrix(1,0,0,1,116,20)"><svg viewBox="0 0 280 280" height="280" width="280"><g><svg viewBox="0 0 280 280" height="280" width="280"><g><svg viewBox="0 0 280 280" height="280" width="280"><g id="textblocktransform"><svg viewBox="0 0 280 280" height="280" width="280" id="textblock"><g><svg viewBox="0 0 280 280" height="280" width="280"><g transform="matrix(1,0,0,1,74.00336708925556,81.85651333950433)"><svg viewBox="0 0 131.99326582148888 116.28697332099134" height="116.28697332099134" width="131.99326582148888"><g><svg xmlns="http://www.w3.org/2000/svg" xmlns:xlink="http://www.w3.org/1999/xlink" version="1.1" x="0" y="0" viewBox="6.3 11.5 87.4 77" style="enable-background:new 0 0 100 100;" xml:space="preserve" height="116.28697332099134" width="131.99326582148888" class="icon-xg-0" data-fill-palette-color="quaternary" id="xg-0"><path d="M72.3 12.3L72.3 12.3 72.3 12.3l-0.4-0.8H28.2L6.3 50l21.8 38.5h43.7L93.7 50 72.3 12.3zM33.3 25.3L9.9 47.7l18.6-32.8L33.3 25.3zM70.7 14.8l6.4 35.7L36.9 25.8 70.7 14.8zM35.5 27.3l41 25.2-41 23.3V27.3zM77 54.5l-7.2 30.8-32.6-8.1L77 54.5zM33.5 75L9.9 50.5l23.6-22.7V75zM33.2 77.6l-4.6 7.7L11.5 55.1 33.2 77.6zM35 78.6l31.4 7.9H30.2L35 78.6zM79.3 53.3l11.6-2.5L72.1 84 79.3 53.3zM90.7 48.9l-11.4 2.5-5.9-33.1L90.7 48.9zM35 24.3l-5-10.8h38.2L35 24.3z" fill="#ffffff" data-fill-palette-color="quaternary"></path></svg></g></svg></g><g><path d="M28.637 106.529l-0.386 1.158-22.366-7.468 0.387-1.158zM33.568 91.76l-0.554 1.66-15.76 7.935-7.015-14.176 0.551-1.651 7.019 14.166z" fill="#ffffff" data-fill-palette-color="quaternary"></path><path d="M53.487 62.582l-0.879-0.848 9.198-9.537-19.916-7.628 8.863 20.848-0.904 0.937-10.215-23.961 24.322 9.333z" fill="#ffffff" data-fill-palette-color="quaternary"></path><path d="M93.306 33.393l-10.03-21.34 1.105-0.519 10.03 21.339z" fill="#ffffff" data-fill-palette-color="quaternary"></path><path d="M131.908 24.204l-1.22 0.054-1.056-23.555 1.22-0.055 14.192 20.726-0.956-21.319 1.22-0.055 1.056 23.556-1.22 0.054-14.194-20.766z" fill="#ffffff" data-fill-palette-color="quaternary"></path><path d="M182.801 31.873l8.076-22.153 1.147 0.419-8.076 22.153z" fill="#ffffff" data-fill-palette-color="quaternary"></path><path d="M216.53 52.783l-0.899-0.826 15.966-17.352 0.899 0.827-4.7 24.676 14.45-15.704 0.899 0.827-15.967 17.351-0.898-0.827 4.727-24.705z" fill="#ffffff" data-fill-palette-color="quaternary"></path><path d="M265.334 98.602l-0.691-1.784 6.155 3.412c1.065-1.685 1.038-3.97-0.078-6.855v0c-0.487-1.259-1.03-2.267-1.63-3.025-0.599-0.758-1.398-1.357-2.399-1.8-1-0.442-2.256-0.575-3.766-0.397-1.516 0.18-3.325 0.676-5.425 1.489-2.094 0.811-3.762 1.66-5.004 2.548-1.242 0.888-2.081 1.831-2.517 2.83-0.442 1-0.629 1.982-0.562 2.945 0.067 0.963 0.345 2.075 0.832 3.334v0c1.107 2.86 2.609 4.559 4.505 5.098v0l6.71-2.597 0.441 1.139-10.013 3.875c-4.827 1.869-8.097 0.592-9.809-3.83v0l-1.716-4.432 1.139-0.441 1.716 4.432c0.735 1.898 1.773 3.097 3.116 3.595 1.34 0.492 3.412 0.196 6.214-0.889v0l0.57-0.22c-1.665-0.919-3.003-2.683-4.012-5.289v0c-1.222-3.157-1.199-5.767 0.068-7.829 1.264-2.053 3.892-3.853 7.885-5.398 3.992-1.545 7.15-1.986 9.473-1.321 2.326 0.671 4.1 2.585 5.322 5.742v0c1.418 3.663 1.18 6.618-0.715 8.865v0z" fill="#ffffff" data-fill-palette-color="quaternary"></path><path d="M7.715 181.41l-0.315-0.979 18.887-6.089 0.315 0.978zM11.737 193.885l-0.453-1.405 6.735-13.238 11.818 6.113 0.45 1.395-11.818-6.113z" fill="#ffffff" data-fill-palette-color="quaternary"></path><path d="M37.166 233.778l0.748-0.705 7.65 8.117 7.211-16.445-17.891 6.611-0.747-0.792 20.557-7.627-8.824 20.076z" fill="#ffffff" data-fill-palette-color="quaternary"></path><path d="M83.628 267.957l8.438-17.961 0.931 0.437-8.438 17.961z" fill="#ffffff" data-fill-palette-color="quaternary"></path><path d="M132.345 279.541l-1.027-0.039 0.748-19.83 1.027 0.038 10.468 18.37 0.677-17.949 1.028 0.039-0.749 19.83-1.027-0.039-10.467-18.41z" fill="#ffffff" data-fill-palette-color="quaternary"></path><path d="M191.554 269.898l-7.057-18.547 0.96-0.365 7.058 18.547z" fill="#ffffff" data-fill-palette-color="quaternary"></path><path d="M233.736 242.917l-0.742 0.712-13.74-14.318 0.742-0.712 20.484 5.237-12.437-12.96 0.742-0.711 13.74 14.318-0.742 0.711-20.512-5.266z" fill="#ffffff" data-fill-palette-color="quaternary"></path><path d="M258.752 179.488l-0.554 1.509-2.007-5.581c-1.607 0.48-2.858 1.94-3.752 4.379v0c-0.392 1.07-0.612 2.012-0.658 2.827-0.037 0.81 0.138 1.633 0.526 2.469 0.381 0.833 1.102 1.615 2.164 2.344 1.056 0.727 2.472 1.416 4.25 2.068 1.777 0.652 3.303 1.042 4.579 1.169 1.275 0.128 2.331-0.001 3.166-0.388 0.836-0.387 1.498-0.903 1.988-1.548 0.498-0.648 0.943-1.508 1.335-2.577v0c0.888-2.42 0.883-4.33-0.013-5.728v0l-5.685-2.085 0.354-0.965 8.475 3.108c4.089 1.5 5.446 4.125 4.07 7.877v0l-1.377 3.755-0.955-0.351 1.377-3.755c0.589-1.605 0.597-2.939 0.025-4.001-0.572-1.062-2.045-2.029-4.421-2.9v0l-0.487-0.179c0.543 1.514 0.41 3.373-0.398 5.577v0c-0.983 2.682-2.448 4.32-4.393 4.915-1.947 0.601-4.612 0.281-7.994-0.959-3.382-1.24-5.622-2.719-6.719-4.437-1.1-1.711-1.158-3.908-0.174-6.589v0c1.138-3.102 2.93-4.837 5.377-5.204v0z" fill="#ffffff" data-fill-palette-color="quaternary"></path><path d="M2.49 140.954c0-5.06 4.102-9.163 9.163-9.162 5.06 0 9.163 4.102 9.163 9.162 0 5.06-4.102 9.163-9.163 9.163-5.06 0-9.163-4.102-9.163-9.163z" fill="#ffffff" data-fill-palette-color="quaternary"></path><path d="M258.946 140.954c0-5.06 4.102-9.163 9.162-9.162 5.06 0 9.163 4.102 9.163 9.162 0 5.06-4.102 9.163-9.163 9.163-5.06 0-9.163-4.102-9.162-9.163z" fill="#ffffff" data-fill-palette-color="quaternary"></path></g></svg></g></svg></g></svg></g></svg></g></svg></g></svg></g><defs></defs></svg><rect width="512" height="320" fill="none" stroke="none" visibility="hidden"></rect></g></svg></g></svg>