<svg xmlns="http://www.w3.org/2000/svg" version="1.1" xmlns:xlink="http://www.w3.org/1999/xlink" xmlns:svgjs="http://svgjs.dev/svgjs" width="1000" height="204" viewBox="0 0 1000 204"><g transform="matrix(1,0,0,1,-0.6060606060606233,0.03756379898636908)"><svg viewBox="0 0 396 81" data-background-color="#ffffff" preserveAspectRatio="xMidYMid meet" height="204" width="1000" xmlns="http://www.w3.org/2000/svg" xmlns:xlink="http://www.w3.org/1999/xlink"><g id="tight-bounds" transform="matrix(1,0,0,1,0.2400000000000091,-0.014915037832821554)"><svg viewBox="0 0 395.52 81.02983007566564" height="81.02983007566564" width="395.52"><g><svg viewBox="0 0 500.0566670509756 102.44616393442624" height="81.02983007566564" width="395.52"><g transform="matrix(1,0,0,1,104.53666705097554,0)"><svg viewBox="0 0 395.52000000000004 102.44616393442624" height="102.44616393442624" width="395.52000000000004"><g id="textblocktransform"><svg viewBox="0 0 395.52000000000004 102.44616393442624" height="102.44616393442624" width="395.52000000000004" id="textblock"><g><svg viewBox="0 0 395.52000000000004 102.44616393442624" height="102.44616393442624" width="395.52000000000004"><g transform="matrix(1,0,0,1,0,0)"><svg width="395.52000000000004" viewBox="4.75 -29.5 152.49 39.5" height="102.44616393442624" data-palette-color="#ed1703"><path d="M6.25 0L4.75 0 4.75-29 6.25-29 6.25 0ZM25.4 0L23.25 0 7.85-15.3 21.65-29 23.8-29 10-15.3 25.4 0ZM33.15 0L33.15-1.5 49.45-1.5 39.2-25.65 28.3 0 26.7 0 39.2-29.5 51.7 0 33.15 0ZM57.4 0L57.4-29 58.9-29 58.9 0 57.4 0ZM69.89 0L68.39 0 68.39-29 69.89-29 86.19-2.75 86.19-29 87.69-29 87.69 0 86.19 0 69.89-26.3 69.89 0ZM97.19 0L97.19-29 98.69-29 98.69 0 97.19 0ZM109.69 0L108.19 0 108.19-29 109.69-29 125.99-2.75 125.99-29 127.49-29 127.49 0 125.99 0 109.69-26.3 109.69 0ZM150.99-19.5L148.64-19.5 155.29-25.05Q153.09-28 147.39-28L147.39-28Q144.89-28 143.19-27.48 141.49-26.95 140.06-25.53 138.64-24.1 137.94-21.38 137.24-18.65 137.24-14.5 137.24-10.35 137.94-7.63 138.64-4.9 140.06-3.48 141.49-2.05 143.19-1.53 144.89-1 147.39-1L147.39-1Q153.04-1 155.24-3.9L155.24-3.9 155.24-12.75 156.74-12.75 156.74 0.45Q156.74 10 147.99 10L147.99 10 142.14 10 142.14 8.5 147.99 8.5Q151.74 8.5 153.49 6.53 155.24 4.55 155.24-1L155.24-1 155.24-1.75Q152.54 0.5 147.39 0.5L147.39 0.5Q141.14 0.5 138.44-3.05 135.74-6.6 135.74-14.5 135.74-22.4 138.44-25.95 141.14-29.5 147.39-29.5L147.39-29.5Q154.64-29.5 157.24-24.75L157.24-24.75 150.99-19.5Z" opacity="1" transform="matrix(1,0,0,1,0,0)" fill="#ed1703" class="wordmark-text-0" data-fill-palette-color="primary" id="text-0"></path></svg></g></svg></g></svg></g></svg></g><g transform="matrix(1,0,0,1,0,15.82793232786885)"><svg viewBox="0 0 80.35158645399193 70.79029927868854" height="70.79029927868854" width="80.35158645399193"><g><svg xmlns="http://www.w3.org/2000/svg" xmlns:xlink="http://www.w3.org/1999/xlink" version="1.1" x="0" y="0" viewBox="6.3 11.5 87.4 77" style="enable-background:new 0 0 100 100;" xml:space="preserve" height="70.79029927868854" width="80.35158645399193" class="icon-icon-0" data-fill-palette-color="accent" id="icon-0"><path d="M72.3 12.3L72.3 12.3 72.3 12.3l-0.4-0.8H28.2L6.3 50l21.8 38.5h43.7L93.7 50 72.3 12.3zM33.3 25.3L9.9 47.7l18.6-32.8L33.3 25.3zM70.7 14.8l6.4 35.7L36.9 25.8 70.7 14.8zM35.5 27.3l41 25.2-41 23.3V27.3zM77 54.5l-7.2 30.8-32.6-8.1L77 54.5zM33.5 75L9.9 50.5l23.6-22.7V75zM33.2 77.6l-4.6 7.7L11.5 55.1 33.2 77.6zM35 78.6l31.4 7.9H30.2L35 78.6zM79.3 53.3l11.6-2.5L72.1 84 79.3 53.3zM90.7 48.9l-11.4 2.5-5.9-33.1L90.7 48.9zM35 24.3l-5-10.8h38.2L35 24.3z" fill="#ed1703" data-fill-palette-color="accent"></path></svg></g></svg></g></svg></g><defs></defs></svg><rect width="395.52" height="81.02983007566564" fill="none" stroke="none" visibility="hidden"></rect></g></svg></g></svg>